<svg xmlns="http://www.w3.org/2000/svg" viewBox="0 0 189.38 238.09"><title>EditableMesa de trabajo 5</title><g id="Capa_1" data-name="Capa 1"><path d="M97.19,215.94H91.93a6.23,6.23,0,0,0-1-.16A86.63,86.63,0,0,1,70,212.6a92.85,92.85,0,0,1-41.45-23.48,95,95,0,0,1-15.86-20.41A92.88,92.88,0,0,1,.39,129.64C.2,127.41.37,125.17,0,123v-1.58c.06-.61.16-1.22.16-1.83a93.84,93.84,0,0,1,25.49-62.9A92,92,0,0,1,60.39,33.29a96.9,96.9,0,0,1,26.17-6.1,42.25,42.25,0,0,0,5.63-.37h4.48a9.5,9.5,0,0,0,1.16.16,65.18,65.18,0,0,1,11.5,1.07c22.11,3.73,40.82,13.71,55.87,30.4A91.29,91.29,0,0,1,183,87.58a95.63,95.63,0,0,1,6,25.8,46,46,0,0,0,.38,5.63v4.74a11.36,11.36,0,0,0-.16,1.29,72.1,72.1,0,0,1-1.36,12.79,94.25,94.25,0,0,1-24,48.06A90.81,90.81,0,0,1,142,203.15a96.3,96.3,0,0,1-39.34,12.4A42,42,0,0,0,97.19,215.94Zm-4-183.54a64.38,64.38,0,0,0-10.74.85A93.49,93.49,0,0,0,66.38,37,91.82,91.82,0,0,0,19.92,73.22,84.54,84.54,0,0,0,9,97.47a107,107,0,0,0-3,17.07,81.69,81.69,0,0,0,.55,18.63,82.68,82.68,0,0,0,3.82,16,107.77,107.77,0,0,0,5.83,13.93,88.37,88.37,0,0,0,18.53,24.06A82.2,82.2,0,0,0,59.05,203a89,89,0,0,0,48,6.67,84.69,84.69,0,0,0,42.06-18,102.75,102.75,0,0,0,12.14-11.26,85.62,85.62,0,0,0,19.51-36.59,93.9,93.9,0,0,0,2.7-19,73.33,73.33,0,0,0-.38-12.22,102.67,102.67,0,0,0-2.5-14.07,91.52,91.52,0,0,0-5.89-16.16A87,87,0,0,0,162,63.28a92.94,92.94,0,0,0-17.58-15.75A82.41,82.41,0,0,0,121,36.41,91.06,91.06,0,0,0,93.23,32.4Z" style="fill:#b2a87c"/><path d="M181.29,121.11c.91,48.1-40,88.41-89.19,86.93C46.77,206.67,8,169.17,8.35,120.94a86.23,86.23,0,0,1,86-86C142.84,34.55,181.6,74.29,181.29,121.11Zm-4,.43A82.59,82.59,0,0,0,94.57,38.75c-45.66,0-83.32,38-82.4,83.92.9,44.67,36.84,81.66,83.25,81.23A82.29,82.29,0,0,0,177.26,121.54Z" style="fill:#b2a87c"/><path d="M60.29,148.41c4.18-.11,9.62,0,15.06-.12,5.12-.11,10.26.15,15.39.11,7.2-.07,14.4-.26,21.59-.1,10.32.22,20.62-.19,30.93-.12.72,0,1.67-.31,2,.53s-.33,1.58-.9,2.16c-1.74,1.8-3.57,3.51-5.28,5.32-7.64,8.11-15.47,16-23.31,23.94q-9.45,9.51-18.86,19.08c-.18.18-.36.38-.55.56-1.75,1.67-2.13,1.64-3.9,0-5-4.62-9.45-9.72-14.18-14.58-5.77-5.94-11.58-11.85-17.37-17.79q-8-8.23-16.06-16.5c-.53-.55-1.6-1-1.16-2s1.4-.48,2.15-.48C50.25,148.4,54.64,148.41,60.29,148.41Z" style="fill:#b2a87c"/><path d="M100.35,61.71c3.07.52,6.09,1.27,9.12,2,4.3,1,8.58,2.15,12.94,3,3,.57,6,1.5,9,2.3,3.55,1,7.18,1.58,10.74,2.53,5.68,1.5,11.4,2.83,17.1,4.24,1.72.43,2.05.91,1.72,2.61-1.94,9.8-3.85,19.61-5.85,29.4-.82,4-2.06,8-2.69,12.06-.74,4.69-2,9.25-2.79,13.93-.36,2.24-1,4.44-1.53,6.66-.12.54-.32,1-.9,1.18s-.85-.41-1.08-.77q-2.92-4.55-5.77-9.11c-3.22-5.17-6.52-10.3-9.61-15.55-2.75-4.68-5.47-9.38-8.32-14-4-6.53-8.18-13-12-19.6-3.68-6.27-7.64-12.37-11.06-18.79-.26-.49-.7-1-.3-1.58A1.27,1.27,0,0,1,100.35,61.71Z" style="fill:#b2a87c"/><path d="M90.11,63c-.36.71-.7,1.52-1.15,2.27-3.48,5.78-7,11.55-10.48,17.33L68.3,99.51q-6.42,10.65-12.84,21.29c-3,5-6.08,9.94-9.07,15a52.69,52.69,0,0,1-2.94,4.83c-.74,1-1.58,1-2.27-.1a3,3,0,0,1-.44-.95c-1.51-7.34-3-14.69-4.51-22-.66-3.22-1.44-6.42-2.09-9.64-1.16-5.76-2.25-11.53-3.4-17.29C29.86,86.15,29,81.73,28,77.31c-.17-.81.06-1.09.82-1.27q11.76-2.78,23.53-5.59l20-4.74L87.92,62C89.14,61.7,90.15,62.12,90.11,63Z" style="fill:#b2a87c"/><path d="M101.86,199.55c-.5,0-.81-.07-1-.37-.25-.45.06-.76.32-1,1.06-1.11,2.16-2.19,3.22-3.3l16.14-16.78c4.53-4.7,8.94-9.52,13.61-14.08,4.12-4,8-8.2,12.08-12.29,2.16-2.2,2.49-2.11,4.39.31,3.24,4.14,6.6,8.19,9.89,12.29,1.18,1.48,1.14,1.57-.25,2.89a8.84,8.84,0,0,1-1.81,1.28c-6.48,3.6-12.93,7.24-19.4,10.85-2.61,1.45-5.24,2.85-7.86,4.27-3.23,1.76-6.29,3.8-9.59,5.44-4.66,2.33-9.16,5-13.72,7.49-1.72,1-3.48,1.84-5.23,2.74A5.08,5.08,0,0,1,101.86,199.55Z" style="fill:#b2a87c"/><path d="M40.56,150c.56,0,.88.33,1.21.68,6.61,6.84,13.2,13.71,19.84,20.52S75,184.87,81.85,191.64a34.66,34.66,0,0,0,5,4.65,8.18,8.18,0,0,1,1.81,2.52.88.88,0,0,1-.19,1.09c-.35.35-.73.22-1.09,0-1.59-.84-3.21-1.63-4.76-2.54-4.95-2.9-10-5.59-15-8.49-7.05-4.11-14.38-7.71-21.34-12-4.9-3-10-5.7-14.95-8.55a23,23,0,0,1-2.62-1.75,1.26,1.26,0,0,1-.23-1.95c3.55-4.85,7.4-9.46,11.11-14.18A1.33,1.33,0,0,1,40.56,150Z" style="fill:#b2a87c"/><path d="M164.18,111.76q0,11.77,0,23.56,0,12.17-.07,24.33c0,.74-.11,1.48-.17,2.22,0,.44-.05.94-.54,1.11a1.3,1.3,0,0,1-1.43-.43c-.69-.74-1.38-1.48-2-2.28-3.25-4.29-6.47-8.62-9.74-12.9a3.85,3.85,0,0,1-.64-3.35c1.32-6.44,2.65-12.87,4-19.31,1.14-5.62,2.17-11.27,3.4-16.87,1.38-6.28,2.61-12.59,4.25-18.8.59-2.24.67-4.6,1.7-6.73.16-.33.12-.93.63-.85s.44.69.44,1.09q.1,13,.19,25.92v3.29Z" style="fill:#b2a87c"/><path d="M25.74,156.73c-.38-5.74-.34-11.48-.37-17.23,0-10.35-.18-20.71,0-31.06.12-7.85-.27-15.7.12-23.55,0-.35,0-.7,0-1,.05-.55-.08-1.34.67-1.37s.63.78.75,1.31c1.38,6.47,2.78,12.94,4.15,19.42,1,4.67,1.94,9.35,2.93,14,1.17,5.53,2.2,11.09,3.58,16.57.94,3.74,1.48,7.56,2.48,11.29.28,1-.38,1.78-.91,2.47-3,3.89-6,7.73-9.06,11.59l-2.61,3.3c-.28.35-.56.7-1.1.47a1.05,1.05,0,0,1-.63-1.06C25.74,160.15,25.74,158.44,25.74,156.73Z" style="fill:#b2a87c"/><path d="M157.75,73.12c-2.17-.49-4.61-1-7-1.58q-11.46-2.73-22.9-5.49c-4.93-1.19-9.85-2.43-14.78-3.66-5.14-1.27-10.28-2.58-15.43-3.82a1.72,1.72,0,0,1-1.53-1.93c.09-4.3-.13-8.6.22-12.9.15-1.86.5-2.09,2.19-1.28,4.19,2,8.35,4.07,12.54,6.07,10.42,5,20.65,10.26,31.11,15.13,5.09,2.37,10.09,4.92,15.13,7.39a11.91,11.91,0,0,1,1.22.77c.3.18.7.33.54.77S158.45,73.1,157.75,73.12Z" style="fill:#b2a87c"/><path d="M93.55,50.28v5.79c0,1.89-.13,2.09-1.94,2.51-6.4,1.52-12.8,3-19.19,4.54-8.94,2.16-17.87,4.37-26.81,6.56l-12.26,3c-.25.06-.52.09-.77.14-.54.1-1.14.19-1.35-.45s.42-.79.82-1c6-3,12-6,18-9,7.24-3.56,14.5-7.07,21.75-10.61,6.5-3.16,13-6.34,19.51-9.48,1.53-.74,2.09-.45,2.16,1.27.09,2.23,0,4.47,0,6.71Z" style="fill:#b2a87c"/><path d="M145.91,144.05c-3.71-5.23-6.78-10.86-10.15-16.29-3.92-6.33-7.75-12.72-11.69-19-3.74-6-7.47-12-11.06-18.07-2.07-3.51-4.39-6.88-6.43-10.4C103.26,74.52,99.64,69,96.15,63.36c-.86-1.38-1.59-1.37-2.66-.13-.2.23-.35.51-.53.76-3.69,5.18-6.83,10.71-10.2,16.1s-6.78,11-10.1,16.49c-3.16,5.26-6.6,10.34-9.74,15.62-5.09,8.55-10.32,17-15.49,25.54a40.67,40.67,0,0,0-3.38,5.77c-.69,1.73-.42,2.09,1.43,2.1,3.25,0,6.49,0,9.74,0,7.68.11,15.37.22,23,.12,8.38-.12,16.76.15,25.14.07,6.36-.06,12.73,0,19.08-.08,7.37-.08,14.73.63,21.85,0,.81-.13,1.52.26,1.89-.48C146.45,144.79,146.17,144.41,145.91,144.05ZM110,135.27c0,.11,0,.22,0,.33a.18.18,0,0,1-.16.18,1.19,1.19,0,0,1-.84-.39.59.59,0,0,0-.29-.25,2.09,2.09,0,0,1-.73-.49.23.23,0,0,0-.12-.06c-.29-.05-.41-.26-.5-.5s-.17-.44-.48-.29a.11.11,0,0,1-.11,0c-.15-.15-.42-.15-.52-.27s-.54-.4-.69-.72a.29.29,0,0,0-.22-.18,3.66,3.66,0,0,1-1.42-.64,8.61,8.61,0,0,0-1.94-.68,9.49,9.49,0,0,1-1.19-.18c-.45-.18-.94,0-1.39-.23a.86.86,0,0,0-.76,0,.2.2,0,0,1-.14,0c-.39-.19-.83-.1-1.22-.26a.29.29,0,0,0-.31,0,.21.21,0,0,1-.25,0c-.11-.06-.22,0-.25.07-.06.26-.27.18-.37.13a.64.64,0,0,0-.7.09.29.29,0,0,1-.44,0,1,1,0,0,0-.45-.22c-.31-.09-.55-.4-.92-.32-.17,0-.3,0-.42.21a.47.47,0,0,1-.6.21c-.47-.15-.94-.32-1.42-.45a.53.53,0,0,1-.28-.16.51.51,0,0,0-.52-.15.58.58,0,0,1-.58-.1c-.12-.1-.23.06-.34,0a4.33,4.33,0,0,0-1.39.09,3.63,3.63,0,0,1-1.27-.19c-.24-.07-.46-.17-.69-.26s-.17-.22-.12-.37a.93.93,0,0,0-.73-1.23.85.85,0,0,1-.58-.32.34.34,0,0,0-.38-.18.24.24,0,0,1-.14,0c-.33-.14-.67-.23-1-.35a2.67,2.67,0,0,1-1.12-.69,1.35,1.35,0,0,1-.3-.73c-.07-.24-.29-.42-.26-.71,0-.07-.1-.15-.2-.12a2.11,2.11,0,0,0-.6.16,1.93,1.93,0,0,1-1.45.16.86.86,0,0,0-.32,0,.44.44,0,0,1-.48-.14.44.44,0,0,0-.2-.13c-.22,0-.3-.19-.36-.39a.67.67,0,0,0-.3-.46c-.11-.06-.1-.16-.12-.26-.08-.33-.23-.44-.58-.38a.56.56,0,0,1-.58-.26.52.52,0,0,1,0-.64,1.55,1.55,0,0,1,.56-.52.87.87,0,0,0,.52-1.27c-.12-.3-.11-.63-.23-.93a1.18,1.18,0,0,0-.94-.6,1.75,1.75,0,0,1-.56-.12,6.52,6.52,0,0,1-1.39-.24.76.76,0,0,0-.42,0c-.15,0-.22,0-.23-.18V106.09c0-.24.08-.52-.31-.55-.08,0-.1-.12-.1-.2v-1a.21.21,0,0,1,.24-.24H96.51c.11,0,.22,0,.33,0s.29-.09.29-.29v-.33c0-2.72,0-5.44,0-8.16,0-.45,0-.46.45-.46h11.94c.43,0,.44,0,.44.46v20h0Z" style="fill:#b2a87c"/><path d="M57.93,213.18l2.9.84-4.61,15.84L61,231.25l-.77,2.64-7.68-2.24Z" style="fill:#b2a87c"/><path d="M68.9,216.15l4,.85L72,236.48l-3-.63.26-3.85v.05l-3.36-.71-1.32,3.57-2.75-.59Zm.55,13.27.66-9.58h0l-3.27,9Z" style="fill:#b2a87c"/><path d="M80.85,218.14l4.44.35A4.43,4.43,0,0,1,88.57,220a5,5,0,0,1,.85,3.62l-.15,1.9a5,5,0,0,1-1.4,3.44,4.42,4.42,0,0,1-3.47,1L83,229.75l-.61,7.82-3-.24Zm3.77,9a1.4,1.4,0,0,0,1.14-.32,2.06,2.06,0,0,0,.48-1.37l.18-2.27a2.13,2.13,0,0,0-.26-1.43,1.46,1.46,0,0,0-1.08-.5l-1.43-.11L83.19,227Z" style="fill:#b2a87c"/><path d="M92.24,218.85h4.09l3.15,19.25h-3l-.55-3.82v0H92.46l-.55,3.77h-2.8Zm3.3,12.86-1.35-9.51h0l-1.32,9.51Z" style="fill:#b2a87c"/><path d="M100.2,218.9l4.29-.43L107.78,232h0l.55-13.9,4.29-.43,1.91,19.15-2.84.28-1.45-14.5h-.05l-.74,14.72-2.52.25-3.64-14.28h0l1.45,14.5-2.63.26Z" style="fill:#b2a87c"/><path d="M114.15,217.4l4.37-.9a4.4,4.4,0,0,1,3.55.5,5,5,0,0,1,1.82,3.25l.39,1.85a5.09,5.09,0,0,1-.39,3.71,4.39,4.39,0,0,1-3.07,1.86l-1.4.29,1.59,7.68-3,.61Zm6.12,7.58a1.4,1.4,0,0,0,1-.63,2,2,0,0,0,.08-1.45l-.46-2.23a2.11,2.11,0,0,0-.64-1.3,1.43,1.43,0,0,0-1.18-.18l-1.4.29,1.2,5.79Z" style="fill:#b2a87c"/><path d="M125.29,214.9l3.93-1.14,8.36,17.61-2.9.84-1.59-3.51v.05l-3.3.95.52,3.77-2.69.78ZM132,226.34l-3.94-8.76H128l1.38,9.51Z" style="fill:#b2a87c"/><path d="M4.51,44.27l3.34-3.59L24.43,51,22,53.66l-3.23-2.11,0,0-2.8,3,2.29,3L16,60.08Zm12.06,5.85-8-5.28,0,0,5.85,7.61Z" style="fill:#b2a87c"/><path d="M25.12,49.19a4.62,4.62,0,0,1-3.35-1.86l-.71-.83,2.61-2.21.85,1a1.66,1.66,0,0,0,2.64.21,2,2,0,0,0,.77-1.25,2,2,0,0,0-.59-1.43,3.53,3.53,0,0,0-1.87-1.19,11.25,11.25,0,0,0-3.29-.11,13.13,13.13,0,0,1-4.3-.24,5.27,5.27,0,0,1-2.62-1.71A4.53,4.53,0,0,1,14,36a5.87,5.87,0,0,1,2.25-3.55,5.56,5.56,0,0,1,3.81-1.59,4.69,4.69,0,0,1,3.33,1.86l.51.61-2.61,2.21-.63-.75A2,2,0,0,0,19.4,34a1.86,1.86,0,0,0-1.32.53,1.61,1.61,0,0,0-.19,2.57,3.2,3.2,0,0,0,1.78,1.05,12.19,12.19,0,0,0,3.28.08,12.39,12.39,0,0,1,4.32.25A5.8,5.8,0,0,1,30,40.31,4.63,4.63,0,0,1,31.23,44,5.8,5.8,0,0,1,29,47.56,5.63,5.63,0,0,1,25.12,49.19Z" style="fill:#b2a87c"/><path d="M34.47,41.54a4.54,4.54,0,0,1-3.14-2.2l-5.55-8.42A4.51,4.51,0,0,1,25,27.17a5.94,5.94,0,0,1,2.71-3.3,6,6,0,0,1,4.1-1.19A4.58,4.58,0,0,1,35,24.88L40.5,33.3a4.55,4.55,0,0,1,.78,3.75,6,6,0,0,1-2.71,3.3A6,6,0,0,1,34.47,41.54Zm3.12-6.09-5.76-8.74a1.67,1.67,0,0,0-2.61-.55,1.67,1.67,0,0,0-.52,2.61l5.76,8.74a1.66,1.66,0,0,0,2.6.55A1.67,1.67,0,0,0,37.59,35.45Z" style="fill:#b2a87c"/><path d="M45.12,34.9a4.42,4.42,0,0,1-2.76-2.51L37.8,23.15a4.42,4.42,0,0,1-.32-3.72,5.72,5.72,0,0,1,3-2.86,5.68,5.68,0,0,1,4.1-.65,4.42,4.42,0,0,1,2.76,2.51l.9,1.82-3.06,1.52-1-2a1.59,1.59,0,0,0-2.41-.8,1.59,1.59,0,0,0-.83,2.4L45.7,31a1.81,1.81,0,0,0,3.24-1.6l-1.3-2.63,3.07-1.51,1.2,2.43a4.46,4.46,0,0,1,.32,3.72,5.71,5.71,0,0,1-3,2.86A5.68,5.68,0,0,1,45.12,34.9Z" style="fill:#b2a87c"/><path d="M48.47,13.27,51.84,12l7,17.86-3.37,1.32Z" style="fill:#b2a87c"/><path d="M58.07,9.8l4.7-1.39,9,17.33-3.46,1L66.62,23.3v.05l-3.94,1.17.43,3.78-3.21.95ZM65.49,21l-4.23-8.64-.07,0,1.17,9.54Z" style="fill:#b2a87c"/><path d="M73.76,24.67a4.43,4.43,0,0,1-1.91-3.21L70.19,11.29A4.4,4.4,0,0,1,71,7.64a5.7,5.7,0,0,1,3.71-1.86,5.74,5.74,0,0,1,4.11.58A4.43,4.43,0,0,1,80.7,9.57l.32,2-3.37.56-.36-2.19a1.81,1.81,0,0,0-3.57.58l1.74,10.57A1.8,1.8,0,0,0,79,20.51l-.47-2.9,3.37-.55.44,2.68a4.46,4.46,0,0,1-.78,3.65,5.72,5.72,0,0,1-3.71,1.86A5.69,5.69,0,0,1,73.76,24.67Z" style="fill:#b2a87c"/><path d="M83.32,4.91l3.61-.26,1.36,19.13L84.68,24Z" style="fill:#b2a87c"/><path d="M91.55,22.52a4.48,4.48,0,0,1-1.33-3.59l.23-10.08a4.52,4.52,0,0,1,1.49-3.53,5.9,5.9,0,0,1,4.11-1.16,6,6,0,0,1,4,1.35,4.55,4.55,0,0,1,1.33,3.59l-.24,10.08a4.5,4.5,0,0,1-1.49,3.53,7.2,7.2,0,0,1-8.15-.19Zm6-3.23.25-10.46a1.88,1.88,0,1,0-3.75-.09L93.83,19.2a1.87,1.87,0,1,0,3.74.09ZM96.47,0l4,.09L96.83,3.16,94.1,3.1Z" style="fill:#b2a87c"/><path d="M105.57,4.77l4.49.66,1.81,11.86h.07L113.61,6l3.19.47-2.79,19-3.68-.54-2.26-14.48H108l-2,13.85-3.19-.47Z" style="fill:#b2a87c"/><path d="M126.64,8.42l5.27,1.68a5.85,5.85,0,0,1,3.48,2.37,4.52,4.52,0,0,1,.21,3.78l-2.94,9.24a4.51,4.51,0,0,1-2.36,3,6,6,0,0,1-4.22-.08l-5.26-1.68Zm.21,17.32a1.89,1.89,0,0,0,1.43,0,1.81,1.81,0,0,0,.89-1.21l3-9.5a1.86,1.86,0,0,0,0-1.5,2,2,0,0,0-1.17-.83l-1.75-.56L125.1,25.18Z" style="fill:#b2a87c"/><path d="M140.76,13.21l9,4.07-1.13,2.5-5.69-2.58-2.09,4.62,4.52,2.05-1.13,2.49-4.52-2-2.43,5.36L143,32.26l-1.13,2.49-9-4.06Z" style="fill:#b2a87c"/><path d="M158.09,22l4.44,3a6.36,6.36,0,0,1,2.77,3.18,4.14,4.14,0,0,1-.81,3.48l-.66,1q-1.68,2.47-4.08,1.81l0,0a2.79,2.79,0,0,1,.79,2.16,5.76,5.76,0,0,1-1.08,2.55l-1.89,2.79c-.3.45-.53.83-.69,1.13a3,3,0,0,0-.29,1l-3-2.06a3.42,3.42,0,0,1,.27-.87,11.75,11.75,0,0,1,.77-1.27l2-2.9a2.59,2.59,0,0,0,.61-1.8A2.44,2.44,0,0,0,156,33.75l-1-.7-4.61,6.8-3-2Zm-.52,9.57a2.4,2.4,0,0,0,1.6.52,1.93,1.93,0,0,0,1.33-1l.83-1.22a2.13,2.13,0,0,0,.48-1.5,1.86,1.86,0,0,0-.9-1.17l-1.36-.92-3.07,4.54Z" style="fill:#b2a87c"/><path d="M159.17,45a4.49,4.49,0,0,1,1.28-3.61l6.64-7.59A4.54,4.54,0,0,1,170.5,32a6,6,0,0,1,3.9,1.74,5.92,5.92,0,0,1,2.23,3.63A4.52,4.52,0,0,1,175.35,41l-6.64,7.58a4.54,4.54,0,0,1-3.41,1.75,6,6,0,0,1-3.9-1.74A5.92,5.92,0,0,1,159.17,45Zm6.69,1.38,6.9-7.87A1.87,1.87,0,1,0,169.94,36L163,43.9a1.87,1.87,0,1,0,2.82,2.47Z" style="fill:#b2a87c"/><path d="M181.09,40.37,183.53,43,171.42,54.15l4,4.39-2,1.85-6.47-7Z" style="fill:#b2a87c"/></g></svg>